<svg xmlns="http://www.w3.org/2000/svg"  viewBox="0 0 64 64" width="64px" height="64px"><radialGradient id="pp0iEiTCQnRRKMneVgsYra" cx="32.128" cy="35.406" r="36.865" gradientTransform="matrix(1 0 0 -1 0 66)" gradientUnits="userSpaceOnUse"><stop offset="0" stop-color="#9ceeff"/><stop offset=".642" stop-color="#c5f5ff"/><stop offset="1" stop-color="#dcf9ff"/></radialGradient><path fill="url(#pp0iEiTCQnRRKMneVgsYra)" d="M59,39h-1.5c-0.828,0-1.5-0.671-1.5-1.5s0.672-1.5,1.5-1.5h1.349	c1.922,0,3.69-1.287,4.068-3.172C63.433,30.257,61.48,28,59,28h-0.5c-0.828,0-1.5-0.672-1.5-1.5l0,0c0-0.828,0.672-1.5,1.5-1.5	h0.285c2.499,0,4.776-1.738,5.154-4.209c0.472-3.078-1.866-5.733-4.841-5.79c-0.916-0.018-1.788-0.564-2.025-1.449	C56.715,12.21,57.716,11,59,11h0.5c2.148,0,3.844-1.935,3.44-4.158C62.633,5.156,61.055,4,59.341,4C50.603,4,13.398,4,4.66,4	c-1.714,0-3.293,1.156-3.6,2.842C0.656,9.065,2.352,11,4.5,11h0.406c0.921,0,1.795,0.575,2.025,1.467	C7.276,13.8,6.279,14.999,5.002,15c-1.959,0.002-3.821,1.082-4.57,2.892C-1.07,21.524,1.559,25,5,25h0.5C6.328,25,7,25.672,7,26.5	l0,0C7,27.328,6.328,28,5.5,28H5.151c-1.923,0-3.69,1.287-4.068,3.173C0.568,33.744,2.521,36,5,36h0.5C6.328,36,7,36.671,7,37.5	S6.328,39,5.5,39H5.215c-2.499,0-4.776,1.739-5.154,4.209c-0.472,3.078,1.866,5.732,4.84,5.79c0.917,0.018,1.789,0.564,2.025,1.45	C7.285,51.79,6.284,53,5,53H4.5c-2.148,0-3.844,1.935-3.44,4.158C1.367,58.844,2.945,60,4.659,60c8.738,0,45.943,0,54.681,0	c1.714,0,3.293-1.156,3.599-2.842C63.344,54.935,61.648,53,59.5,53h-0.406c-0.922,0-1.797-0.576-2.026-1.469	c-0.342-1.333,0.653-2.528,1.928-2.531c1.959-0.004,3.823-1.082,4.572-2.893C65.07,42.475,62.441,39,59,39z"/><linearGradient id="pp0iEiTCQnRRKMneVgsYrb" x1="45.611" x2="45.611" y1="8.156" y2="75.558" gradientTransform="matrix(1 0 0 -1 0 66)" gradientUnits="userSpaceOnUse"><stop offset="0" stop-color="#fc724e"/><stop offset=".214" stop-color="#fc7366"/><stop offset=".524" stop-color="#fa7381"/><stop offset=".793" stop-color="#f97492"/><stop offset=".989" stop-color="#f97499"/></linearGradient><path fill="url(#pp0iEiTCQnRRKMneVgsYrb)" d="M55,14v12.78c0,1.031-1.361,1.382-1.867,0.483c-3.845-6.822-9.574-12.551-16.396-16.396	C35.839,10.361,36.189,9,37.22,9H50C52.761,9,55,11.239,55,14z"/><linearGradient id="pp0iEiTCQnRRKMneVgsYrc" x1="18.389" x2="18.389" y1="8.156" y2="75.558" gradientTransform="matrix(1 0 0 -1 0 66)" gradientUnits="userSpaceOnUse"><stop offset="0" stop-color="#fc724e"/><stop offset=".214" stop-color="#fc7366"/><stop offset=".524" stop-color="#fa7381"/><stop offset=".793" stop-color="#f97492"/><stop offset=".989" stop-color="#f97499"/></linearGradient><path fill="url(#pp0iEiTCQnRRKMneVgsYrc)" d="M9,50V37.22c0-1.031,1.361-1.382,1.867-0.483c3.845,6.822,9.574,12.551,16.396,16.396	C28.161,53.639,27.811,55,26.78,55H14C11.239,55,9,52.761,9,50z"/><linearGradient id="pp0iEiTCQnRRKMneVgsYrd" x1="32" x2="32" y1="8.156" y2="75.558" gradientTransform="matrix(1 0 0 -1 0 66)" gradientUnits="userSpaceOnUse"><stop offset="0" stop-color="#fc724e"/><stop offset=".214" stop-color="#fc7366"/><stop offset=".524" stop-color="#fa7381"/><stop offset=".793" stop-color="#f97492"/><stop offset=".989" stop-color="#f97499"/></linearGradient><path fill="url(#pp0iEiTCQnRRKMneVgsYrd)" d="M23.464,10.464l30.071,30.071C54.473,41.473,55,42.745,55,44.071V50c0,2.761-2.239,5-5,5	h-5.929c-1.326,0-2.598-0.527-3.536-1.464L10.464,23.464C9.527,22.527,9,21.255,9,19.929V14c0-2.761,2.239-5,5-5h5.929	C21.255,9,22.527,9.527,23.464,10.464z"/></svg>